<svg width="18" height="18" viewBox="0 0 18 18" fill="none" xmlns="http://www.w3.org/2000/svg">
<g clip-path="url(#clip0_3617_232)">
<path d="M1.58203 0.5H16.418C17.0141 0.5 17.5 0.985859 17.5 1.58203V16.418C17.5 17.0141 17.0141 17.5 16.418 17.5H1.58203C0.985859 17.5 0.5 17.0141 0.5 16.418V1.58203C0.5 0.985859 0.985859 0.5 1.58203 0.5ZM1.58203 0.554688C1.01516 0.554688 0.554688 1.01516 0.554688 1.58203V16.418C0.554688 16.9848 1.01516 17.4453 1.58203 17.4453H16.418C16.9848 17.4453 17.4453 16.9848 17.4453 16.418V1.58203C17.4453 1.01516 16.9848 0.554688 16.418 0.554688H1.58203Z" stroke="#7B6F72"/>
<path d="M9 2.67969C10.9712 2.67969 12.8503 3.26489 14.4629 4.37695L14.7822 4.60645C14.788 4.61091 14.792 4.6174 14.793 4.62402V4.625C14.7939 4.63209 14.7913 4.63892 14.7871 4.64453L12.0039 8.34863C11.9948 8.36078 11.9777 8.3624 11.9658 8.35352C11.1044 7.70756 10.077 7.36523 9 7.36523C7.92286 7.36524 6.89555 7.70757 6.03418 8.35352C6.0311 8.35579 6.02853 8.35769 6.02637 8.3584C6.02408 8.3591 6.0214 8.35938 6.01855 8.35938C6.01393 8.35937 6.0095 8.35821 6.00586 8.35645C6.00275 8.35493 5.99932 8.35288 5.99609 8.34863L3.21289 4.64453C3.2088 4.63895 3.20621 4.63217 3.20703 4.625L3.21777 4.60645C4.89917 3.34547 6.89728 2.67969 9 2.67969ZM9 2.73438C7.09796 2.73438 5.2773 3.2841 3.70508 4.3291L3.26367 4.62207L3.58203 5.0459L5.73828 7.91406L6.01172 8.27734L6.39941 8.04004C7.04549 7.64474 7.76476 7.4054 8.51953 7.33398L8.97266 7.29102V5.22852C8.97288 5.21359 8.98502 5.20118 9 5.20117C9.01499 5.20117 9.02712 5.21358 9.02734 5.22852V7.29102L9.48047 7.33398C10.2352 7.4054 10.9545 7.64474 11.6006 8.04004L11.9883 8.27734L12.2617 7.91406L14.418 5.0459L14.7363 4.62207L14.2949 4.3291C12.7227 3.28409 10.902 2.73438 9 2.73438Z" stroke="#7B6F72"/>
</g>
<defs>
<clipPath id="clip0_3617_232">
<rect width="18" height="18" fill="white"/>
</clipPath>
</defs>
</svg>
