<svg width="18" height="18" viewBox="0 0 18 18" fill="none" xmlns="http://www.w3.org/2000/svg">
<path fill-rule="evenodd" clip-rule="evenodd" d="M7.19351 11.4051C9.96026 11.4051 12.325 11.8243 12.325 13.4991C12.325 15.1738 9.97601 15.6051 7.19351 15.6051C4.42601 15.6051 2.06201 15.1896 2.06201 13.5141C2.06201 11.8386 4.41026 11.4051 7.19351 11.4051Z" stroke="#7B6F72" stroke-width="1.2" stroke-linecap="round" stroke-linejoin="round"/>
<path fill-rule="evenodd" clip-rule="evenodd" d="M7.19331 9.01485C5.37681 9.01485 3.90381 7.5426 3.90381 5.7261C3.90381 3.9096 5.37681 2.43735 7.19331 2.43735C9.00906 2.43735 10.4821 3.9096 10.4821 5.7261C10.4888 7.53585 9.02631 9.0081 7.21656 9.01485H7.19331Z" stroke="#7B6F72" stroke-width="1.2" stroke-linecap="round" stroke-linejoin="round"/>
<path d="M12.3623 8.16121C13.5631 7.99246 14.4878 6.96196 14.4901 5.71471C14.4901 4.48546 13.5938 3.46546 12.4186 3.27271" stroke="#7B6F72" stroke-width="1.2" stroke-linecap="round" stroke-linejoin="round"/>
<path d="M13.9463 11.0491C15.1095 11.2224 15.9218 11.6304 15.9218 12.4704C15.9218 13.0486 15.5393 13.4236 14.9213 13.6584" stroke="#7B6F72" stroke-width="1.2" stroke-linecap="round" stroke-linejoin="round"/>
</svg>
